<?xml version="1.0" encoding="UTF-8" standalone="no"?>
<svg
   xmlns:dc="http://purl.org/dc/elements/1.1/"
   xmlns:cc="http://creativecommons.org/ns#"
   xmlns:rdf="http://www.w3.org/1999/02/22-rdf-syntax-ns#"
   xmlns:svg="http://www.w3.org/2000/svg"
   xmlns="http://www.w3.org/2000/svg"
   xmlns:sodipodi="http://sodipodi.sourceforge.net/DTD/sodipodi-0.dtd"
   xmlns:inkscape="http://www.inkscape.org/namespaces/inkscape"
   width="512"
   height="512"
   viewBox="0 0 135.46666 135.46667"
   version="1.1"
   id="svg8"
   sodipodi:docname="favicon.svg"
   inkscape:export-filename="/Users/ns/Documents/workspace/dropin/weather-board/src/favicon.png"
   inkscape:export-xdpi="96"
   inkscape:export-ydpi="96"
   inkscape:version="1.0.1 (c497b03c, 2020-09-10)">
  <defs
     id="defs2" />
  <sodipodi:namedview
     id="base"
     pagecolor="#ffffff"
     bordercolor="#666666"
     borderopacity="1.0"
     inkscape:pageopacity="0.0"
     inkscape:pageshadow="2"
     inkscape:zoom="0.34688511"
     inkscape:cx="-940.75116"
     inkscape:cy="63.331009"
     inkscape:document-units="px"
     inkscape:current-layer="layer1"
     inkscape:document-rotation="0"
     showgrid="false"
     units="px"
     inkscape:window-width="2560"
     inkscape:window-height="1395"
     inkscape:window-x="0"
     inkscape:window-y="23"
     inkscape:window-maximized="0" />
  <metadata
     id="metadata5">
    <rdf:RDF>
      <cc:Work
         rdf:about="">
        <dc:format>image/svg+xml</dc:format>
        <dc:type
           rdf:resource="http://purl.org/dc/dcmitype/StillImage" />
        <dc:title></dc:title>
      </cc:Work>
    </rdf:RDF>
  </metadata>
  <g
     inkscape:label="Ebene 1"
     inkscape:groupmode="layer"
     id="layer1">
    <rect
       style="fill:#3a384e;fill-opacity:1;stroke-width:0.778719;paint-order:fill markers stroke;stop-color:#000000"
       id="rect926-0"
       width="118.53333"
       height="118.53333"
       x="8.4666662"
       y="8.4666662"
       rx="8.1747122"
       ry="8.1747122" />
    <path
       id="path1524"
       style="font-style:normal;font-variant:normal;font-weight:bold;font-stretch:normal;font-size:50.0647px;line-height:1.25;font-family:Menlo;-inkscape-font-specification:'Menlo Bold';fill:#dbdbdb;fill-opacity:1;stroke:none;stroke-width:4.66165"
       d="m 26.618382,37.14807 7.539458,61.170525 h 11.184901 l 6.513992,-32.122168 6.96523,32.122093 h 27.368974 c 8.003088,0 13.779954,-1.242724 17.330793,-3.892215 3.55086,-2.649479 5.32655,-6.924557 5.32655,-12.824437 0,-4.807314 -1.18854,-8.549685 -3.56489,-11.22648 -2.34902,-2.676791 -5.858519,-4.247269 -10.529248,-4.71162 3.905925,-0.355082 6.869318,-1.638257 8.890578,-3.850709 2.02125,-2.212454 3.03224,-5.285589 3.03224,-9.218841 0,-5.135081 -1.72125,-8.986327 -5.16287,-11.553865 C 98.099826,38.445499 92.992194,37.14807 86.190937,37.14807 H 77.136656 66.483542 L 63.042503,82.052245 56.896606,53.003888 H 46.858428 L 41.573444,82.052245 37.189216,37.14807 Z m 51.542011,9.62851 h 8.030544 c 3.004561,0 5.162197,0.572889 6.473282,1.720084 1.338406,1.119885 2.00764,2.936633 2.00764,5.449548 0,2.51291 -0.654988,4.315397 -1.966061,5.40797 -1.283779,1.092569 -3.455673,1.639537 -6.514861,1.639537 h -8.030544 z m 0,23.844783 h 8.030544 c 3.714737,0 6.3783,0.723675 7.98984,2.171333 1.611541,1.447649 2.417298,3.824753 2.417298,7.129794 0,3.250388 -0.778962,5.531162 -2.335888,6.842236 -1.529593,1.311085 -4.219939,1.966061 -8.07125,1.966061 h -8.030544 z"
       sodipodi:nodetypes="ccccccssccsscscccccccccscscscccssscscc" />
  </g>
</svg>
