<?xml version="1.0" standalone="no"?>
<!DOCTYPE svg PUBLIC "-//W3C//DTD SVG 20010904//EN"
 "http://www.w3.org/TR/2001/REC-SVG-20010904/DTD/svg10.dtd">
<svg version="1.0" xmlns="http://www.w3.org/2000/svg"
 width="700.000000pt" height="700.000000pt" viewBox="0 0 700.000000 700.000000"
 preserveAspectRatio="xMidYMid meet">
<metadata>
Created by potrace 1.14, written by Peter Selinger 2001-2017
</metadata>
<g transform="translate(0.000000,700.000000) scale(0.100000,-0.100000)"
fill="#000000" stroke="none">
<path d="M722 6540 c-29 -10 -67 -28 -86 -39 -54 -34 -135 -127 -164 -188
l-27 -58 0 -2755 0 -2755 27 -58 c38 -80 123 -167 206 -208 l67 -34 2755 0
2755 0 58 27 c81 38 170 126 210 207 l32 66 0 2755 0 2755 -32 66 c-40 81
-129 169 -210 207 l-58 27 -2740 2 c-2671 2 -2741 2 -2793 -17z m1198 -1469
c0 -5 50 -516 110 -1136 61 -620 110 -1136 110 -1148 0 -77 33 83 151 736
l133 737 258 0 c142 0 258 -4 258 -8 0 -15 311 -1476 315 -1480 7 -8 16 99 95
1143 44 583 82 1084 86 1113 l6 54 611 -5 c661 -4 715 -8 904 -63 159 -46 272
-113 373 -221 74 -77 120 -163 152 -280 30 -112 30 -344 0 -456 -66 -242 -231
-386 -496 -433 -44 -8 -81 -16 -83 -18 -2 -2 22 -7 54 -11 140 -17 310 -85
406 -162 105 -85 185 -217 229 -378 18 -68 21 -107 22 -265 0 -158 -3 -198
-21 -271 -87 -343 -306 -507 -767 -575 -94 -14 -239 -18 -947 -21 l-836 -5 -5
24 c-34 174 -354 1628 -358 1628 -4 0 -77 -350 -164 -777 -86 -428 -162 -799
-167 -825 l-11 -48 -283 0 -284 0 -6 32 c-4 28 -385 3113 -385 3124 0 2 122 4
270 4 158 0 270 -4 270 -9z"/>
<path d="M4040 4215 l0 -375 188 0 c432 1 554 34 625 171 33 65 48 174 36 271
-22 183 -121 271 -331 298 -45 5 -180 10 -300 10 l-218 0 0 -375z"/>
<path d="M4040 2879 l0 -471 298 5 c318 5 375 13 470 61 65 33 125 100 152
172 18 47 24 85 28 187 7 205 -25 314 -118 401 -104 97 -195 116 -560 116
l-270 0 0 -471z"/>
</g>
</svg>
